<svg width="24" height="24" viewBox="0 0 24 24" fill="none" xmlns="http://www.w3.org/2000/svg">
<path fill-rule="evenodd" clip-rule="evenodd" d="M8.32006 0H15.9999C18.3847 0 20.32 1.93525 20.32 4.32003C20.32 5.99123 19.3696 7.44161 17.9802 8.15996C19.3696 8.87835 20.32 10.3288 20.32 12C20.32 14.3848 18.3847 16.32 15.9999 16.32C14.6434 16.32 13.4323 15.6938 12.6401 14.7149V19.68C12.6401 22.0648 10.7048 24 8.32006 24C5.93527 24 4 22.0648 4 19.68C4 18.0088 4.95039 16.5583 6.33985 15.84C4.95039 15.1216 4 13.6712 4 12C4 10.3288 4.95038 8.87835 6.33983 8.15996C4.95038 7.44161 4 5.99123 4 4.32003C4 1.93525 5.93527 0 8.32006 0ZM4.96 4.32003C4.96 2.46545 6.46546 0.96 8.32006 0.96H11.6799V7.67994H8.32006L8.30964 7.67995C6.45981 7.67433 4.96 6.17112 4.96 4.32003ZM11.6801 11.9543C11.68 11.9695 11.6799 11.9847 11.6799 12C11.6799 12.0152 11.68 12.0304 11.6801 12.0457V15.3599H8.32004C6.46546 15.36 4.96 13.8546 4.96 12C4.96 10.1488 6.45987 8.64553 8.30973 8.63996L8.32006 8.63997H11.6799L11.6801 11.9543ZM12.6401 12.0402V11.9597C12.6617 10.1282 14.1513 8.64734 15.9862 8.63997H15.9999C16.0034 8.63997 16.0068 8.63996 16.0103 8.63996C17.8601 8.64553 19.36 10.1488 19.36 12C19.36 13.8546 17.8545 15.36 15.9999 15.36C14.1588 15.36 12.6617 13.8763 12.6401 12.0402ZM13.2853 8.63997C13.0482 8.83174 12.8319 9.04806 12.6401 9.28506V8.63997H13.2853ZM16.0104 7.67995C16.0069 7.67994 16.0034 7.67994 15.9999 7.67994C15.9947 7.67994 15.9894 7.67995 15.9842 7.67997H12.6401V0.96H15.9999C17.8545 0.96 19.36 2.46545 19.36 4.32003C19.36 6.17112 17.8602 7.67433 16.0104 7.67995ZM8.32006 16.3199C6.46546 16.3199 4.96 17.8254 4.96 19.68C4.96 21.5345 6.46546 23.04 8.32006 23.04C10.1747 23.04 11.6801 21.5345 11.6801 19.68V16.3199H8.32006Z" fill="white"/>
</svg>
