<svg width="24" height="24" viewBox="0 0 24 24" fill="none" xmlns="http://www.w3.org/2000/svg">
<rect x="3" y="3" width="18" height="18" stroke="white" stroke-width="1.5" stroke-linecap="round" stroke-linejoin="round"/>
<path d="M9.099 11.826C11.634 11.826 11.634 16 9.099 16H6V11.826M9.099 11.826H6M9.099 11.826C11.634 11.826 11.634 8 9.099 8H6V11.826M13 13.5C13 12.837 13.2634 12.2011 13.7322 11.7322C14.2011 11.2634 14.837 11 15.5 11C16.163 11 16.7989 11.2634 17.2678 11.7322C17.7366 12.2011 18 12.837 18 13.5H13ZM13 13.5C13 14.163 13.2634 14.7989 13.7322 15.2678C14.2011 15.7366 14.837 16 15.5 16C16.428 16 16.99 15.678 17.313 15.38M17 8.5H14" stroke="white" stroke-width="1.5" stroke-linecap="round" stroke-linejoin="round"/>
</svg>
