<svg width="24" height="24" viewBox="0 0 24 24" fill="none" xmlns="http://www.w3.org/2000/svg">
<path d="M15.26 22.25H8.74C3.83 22.25 1.73 20.15 1.73 15.24V15.11C1.73 10.67 3.48 8.53003 7.4 8.16003C7.8 8.13003 8.18 8.43003 8.22 8.84003C8.26 9.25003 7.96 9.62003 7.54 9.66003C4.4 9.95003 3.23 11.43 3.23 15.12V15.25C3.23 19.32 4.67 20.76 8.74 20.76H15.26C19.33 20.76 20.77 19.32 20.77 15.25V15.12C20.77 11.41 19.58 9.93003 16.38 9.66003C15.97 9.62003 15.66 9.26003 15.7 8.85003C15.74 8.44003 16.09 8.13003 16.51 8.17003C20.49 8.51003 22.27 10.66 22.27 15.13V15.26C22.27 20.15 20.17 22.25 15.26 22.25Z" fill="url(#paint0_linear_6_713)"/>
<path d="M12 15.63C11.59 15.63 11.25 15.29 11.25 14.88V2C11.25 1.59 11.59 1.25 12 1.25C12.41 1.25 12.75 1.59 12.75 2V14.88C12.75 15.3 12.41 15.63 12 15.63Z" fill="url(#paint1_linear_6_713)"/>
<path d="M12 16.75C11.81 16.75 11.62 16.68 11.47 16.53L8.12 13.18C7.83 12.89 7.83 12.41 8.12 12.12C8.41 11.83 8.89 11.83 9.18 12.12L12 14.94L14.82 12.12C15.11 11.83 15.59 11.83 15.88 12.12C16.17 12.41 16.17 12.89 15.88 13.18L12.53 16.53C12.38 16.68 12.19 16.75 12 16.75Z" fill="url(#paint2_linear_6_713)"/>
<defs>
<linearGradient id="paint0_linear_6_713" x1="12" y1="8.15796" x2="12" y2="22.25" gradientUnits="userSpaceOnUse">
<stop stop-color="#00D2FF"/>
<stop offset="1" stop-color="#3A7BD5"/>
</linearGradient>
<linearGradient id="paint1_linear_6_713" x1="12" y1="1.25" x2="12" y2="15.63" gradientUnits="userSpaceOnUse">
<stop stop-color="#00D2FF"/>
<stop offset="1" stop-color="#3A7BD5"/>
</linearGradient>
<linearGradient id="paint2_linear_6_713" x1="12" y1="11.9025" x2="12" y2="16.75" gradientUnits="userSpaceOnUse">
<stop stop-color="#00D2FF"/>
<stop offset="1" stop-color="#3A7BD5"/>
</linearGradient>
</defs>
</svg>
