<svg width="24" height="24" viewBox="0 0 24 24" fill="none" xmlns="http://www.w3.org/2000/svg">
<path d="M21.53 15.93C21.37 15.66 20.92 15.24 19.8 15.44C19.18 15.55 18.55 15.6 17.92 15.57C15.59 15.47 13.48 14.4 12.01 12.75C10.71 11.3 9.90995 9.41 9.89995 7.37C9.89995 6.23 10.12 5.13 10.57 4.09C11.01 3.08 10.7 2.55 10.48 2.33C10.25 2.1 9.70995 1.78 8.64995 2.22C4.55995 3.94 2.02995 8.04 2.32995 12.43C2.62995 16.56 5.52995 20.09 9.36995 21.42C10.29 21.74 11.26 21.93 12.26 21.97C12.42 21.98 12.58 21.99 12.74 21.99C16.09 21.99 19.23 20.41 21.21 17.72C21.88 16.79 21.7 16.2 21.53 15.93Z" fill="url(#paint0_linear_15_289)"/>
<defs>
<linearGradient id="paint0_linear_15_289" x1="11.9966" y1="2.00062" x2="11.9966" y2="21.99" gradientUnits="userSpaceOnUse">
<stop stop-color="#00D2FF"/>
<stop offset="1" stop-color="#3A7BD5"/>
</linearGradient>
</defs>
</svg>
