<svg width="24" height="24" viewBox="0 0 24 24" fill="none" xmlns="http://www.w3.org/2000/svg">
<path fill-rule="evenodd" clip-rule="evenodd" d="M12 0C5.37101 0 0 5.37491 0 11.9978C0 18.2934 4.85696 23.4609 11.0266 23.9567V24H12C18.629 24 24 18.6251 24 12.0022C24 5.37975 18.6295 0 12 0ZM14.6516 21.7002C13.8988 21.9055 13.1107 22.0256 12.2985 22.0492H12C10.6456 22.0492 9.35338 21.781 8.17376 21.2947C9.3159 17.1794 12.4121 14.2318 15.9559 12.9146C16.5675 15.8785 16.1236 19.0547 14.6516 21.7002ZM15.4163 11.04C11.3716 12.4968 7.83914 15.7784 6.41977 20.3582C3.72339 18.5548 1.94675 15.4824 1.94675 11.9978C1.94675 10.7621 2.16994 9.57831 2.57825 8.48452C3.79532 9.09094 5.09671 9.5199 6.43503 9.75844C8.13986 10.071 9.88657 10.0606 11.5864 9.75412C12.554 9.57944 13.4986 9.3012 14.4044 8.93044C14.8075 9.60063 15.1466 10.3068 15.4163 11.04ZM17.8323 12.3789C18.4168 15.0767 18.2395 17.9357 17.3067 20.5404C20.0742 18.817 21.9426 15.7861 22.0485 12.3139C20.6728 12.0645 19.2387 12.0949 17.8323 12.3789ZM21.9132 10.3212C20.3897 10.1072 18.8229 10.1767 17.2925 10.5037C16.9911 9.65803 16.6106 8.84342 16.1573 8.06991C17.4147 7.3437 18.563 6.42968 19.5501 5.3639C20.7573 6.73654 21.5965 8.44064 21.9132 10.3212ZM6.77898 7.84264C5.61636 7.63565 4.4871 7.26251 3.43327 6.73584C4.33961 5.26412 5.61473 4.04339 7.12997 3.20271L7.14164 3.20639L7.14208 3.20652L7.14214 3.20654L7.14216 3.20655C7.30723 3.2585 7.46483 3.30809 7.61658 3.36256C7.67257 3.38394 7.72739 3.40473 7.78098 3.42504L7.78182 3.42536L7.78187 3.42538L7.7819 3.42539C8.02797 3.51869 8.24771 3.60201 8.43127 3.68711L8.48366 3.7133L8.49614 3.7191C8.61206 3.77301 8.77908 3.85262 8.92961 3.9244C9.00959 3.96257 9.08497 3.9985 9.14553 4.02715L9.14778 4.02839C9.19841 4.05557 9.24093 4.07841 9.28057 4.10204C9.31282 4.12296 9.34162 4.13991 9.35707 4.14895C9.38531 4.16549 9.41433 4.18184 9.43826 4.19515C9.45869 4.20651 9.47875 4.21757 9.49379 4.22582L9.50137 4.22999L9.51738 4.23884L9.51941 4.24C9.54172 4.25286 9.56879 4.26831 9.59966 4.28594C9.66584 4.3237 9.74951 4.37144 9.84138 4.42521C9.90614 4.46316 9.96674 4.49935 10.0162 4.52999C10.0529 4.55281 10.0729 4.56605 10.0805 4.57109L10.0809 4.57139C10.084 4.57346 10.0848 4.57395 10.0835 4.57299L10.1262 4.60532L10.1736 4.63349C10.2459 4.67639 10.3171 4.72569 10.406 4.7872L10.4061 4.78722L10.4061 4.78724L10.4065 4.7875C10.447 4.81559 10.4913 4.84622 10.5411 4.87997L10.5748 4.90289L10.6036 4.91909C10.6035 4.91914 10.6049 4.92004 10.6077 4.92197C10.6155 4.92717 10.6342 4.93981 10.6669 4.96322C10.7172 4.99922 10.7779 5.04441 10.8447 5.09466L10.9239 5.15429C10.9645 5.185 11.0058 5.21612 11.0409 5.24237C11.0872 5.27706 11.1439 5.31917 11.1951 5.35465C11.9421 5.92594 12.6249 6.57827 13.2328 7.29729C12.586 7.53394 11.9194 7.71612 11.2407 7.83866C9.76121 8.1054 8.25 8.1126 6.78408 7.84358L6.78153 7.84309L6.77898 7.84264ZM12 1.9464C14.3075 1.9464 16.4333 2.72466 18.1299 4.03257C17.2404 4.99495 16.1987 5.81456 15.0582 6.45596C14.274 5.45927 13.3668 4.56192 12.3553 3.79142L12.3309 3.77282L12.3055 3.75591L12.2986 3.75111C12.2932 3.7473 12.286 3.74215 12.2768 3.73544C12.2581 3.72188 12.235 3.70475 12.2072 3.68397C12.1757 3.66042 12.1442 3.63659 12.1103 3.611L12.1102 3.61095L12.1032 3.6057C12.0757 3.58494 12.0466 3.56297 12.0148 3.53903C11.9458 3.4872 11.8702 3.43083 11.8008 3.38106C11.7523 3.34628 11.6825 3.29709 11.6113 3.25371L11.5661 3.22245L11.5658 3.22227L11.5658 3.22226C11.4731 3.15808 11.3341 3.0618 11.2077 2.98413C11.0895 2.9013 10.9298 2.80694 10.8252 2.74567C10.7239 2.68635 10.6148 2.6241 10.5471 2.58545L10.5466 2.58515L10.4953 2.55582C10.4826 2.54839 10.4715 2.54225 10.4672 2.53985L10.4666 2.53952L10.4403 2.52498L10.4314 2.52008C10.4163 2.51176 10.4012 2.50344 10.3855 2.49469C10.3675 2.48468 10.353 2.47642 10.3423 2.47024L10.335 2.46512L10.3092 2.44934C10.2157 2.39221 10.1183 2.34004 10.0654 2.31172L10.0643 2.31112L10.0459 2.30125L10.0233 2.28908L10 2.27811C9.95359 2.25619 9.88492 2.22348 9.80696 2.18631C10.5129 2.02925 11.2467 1.9464 12 1.9464Z" fill="white"/>
</svg>
